<svg width="16" height="14" viewBox="0 0 16 14" fill="none" xmlns="http://www.w3.org/2000/svg">
<path d="M10.043 13.2344C10.043 13.6445 10.3652 13.9375 10.7461 13.9375H12.8555C14.4375 13.9375 15.668 12.707 15.668 11.125V3.625C15.668 2.07227 14.4375 0.8125 12.8555 0.8125H10.7461C10.3652 0.8125 10.043 1.13477 10.043 1.51562C10.043 1.92578 10.3652 2.21875 10.7461 2.21875H12.8555C13.6465 2.21875 14.2617 2.86328 14.2617 3.625V11.125C14.2617 11.916 13.6465 12.5312 12.8555 12.5312H10.7461C10.3652 12.5312 10.043 12.8535 10.043 13.2344ZM0.873047 6.90625L4.59375 2.92188C4.85742 2.62891 5.29688 2.62891 5.58984 2.89258C5.88281 3.15625 5.88281 3.5957 5.61914 3.88867L3.01172 6.67188H10.3066C10.6875 6.67188 10.9805 6.99414 10.9805 7.375C10.9805 7.78516 10.6875 8.07812 10.3066 8.07812H3.04102L5.67773 10.8906C5.94141 11.1836 5.94141 11.623 5.64844 11.8867C5.47266 12.0039 5.29688 12.0625 5.15039 12.0625C4.97461 12.0625 4.79883 12.0039 4.65234 11.8574L0.931641 7.87305C0.609375 7.60938 0.609375 7.16992 0.873047 6.90625Z" fill="#D2D2D2"/>
</svg>
