<svg width="12" height="9" viewBox="0 0 12 9" fill="none" xmlns="http://www.w3.org/2000/svg">
<path d="M2.71531 8.85883C1.27625 8.85883 0.125 7.70758 0.125 6.26852C0.125 5.15324 0.844531 4.18187 1.85188 3.8401C1.85188 3.78613 1.85188 3.73217 1.85188 3.6782C1.85188 2.09523 3.12904 0.800078 4.73 0.800078C5.79131 0.800078 6.7267 1.39369 7.21238 2.25713C7.48221 2.05926 7.82398 1.95133 8.18375 1.95133C9.13713 1.95133 9.91063 2.72482 9.91063 3.6782C9.91063 3.91205 9.85666 4.10992 9.78471 4.30779C10.846 4.52365 11.6375 5.45904 11.6375 6.55633C11.6375 7.8335 10.5942 8.85883 9.335 8.85883H2.71531ZM4.13639 4.95537C3.9565 5.13525 3.9565 5.40508 4.13639 5.56697C4.29828 5.74686 4.56811 5.74686 4.73 5.56697L5.44953 4.86543V7.27586C5.44953 7.5277 5.62941 7.70758 5.88125 7.70758C6.1151 7.70758 6.31297 7.5277 6.31297 7.27586V4.86543L7.01451 5.56697C7.17641 5.74686 7.44623 5.74686 7.60813 5.56697C7.78801 5.40508 7.78801 5.13525 7.60813 4.95537L6.16906 3.51631C6.00717 3.35441 5.73734 3.35441 5.57545 3.51631L4.13639 4.95537Z" fill="white"/>
</svg>
