<svg width="12" height="9" viewBox="0 0 12 9" fill="none" xmlns="http://www.w3.org/2000/svg">
<path d="M3.01219 8.81732C1.57313 8.81732 0.421875 7.66607 0.421875 6.22701C0.421875 5.11174 1.14141 4.14037 2.14875 3.79859C2.14875 3.74463 2.14875 3.69066 2.14875 3.6367C2.14875 2.05373 3.42592 0.758574 5.02688 0.758574C6.08818 0.758574 7.02357 1.35219 7.50926 2.21562C7.77908 2.01775 8.12086 1.90982 8.48063 1.90982C9.434 1.90982 10.2075 2.68332 10.2075 3.6367C10.2075 3.87055 10.1535 4.06842 10.0816 4.26629C11.1429 4.48215 11.9344 5.41754 11.9344 6.51482C11.9344 7.79199 10.8911 8.81732 9.63188 8.81732H3.01219ZM4.43326 4.91387C4.25338 5.09375 4.25338 5.36357 4.43326 5.52547C4.59516 5.70535 4.86498 5.70535 5.02688 5.52547L5.74641 4.82393V7.23436C5.74641 7.48619 5.92629 7.66607 6.17813 7.66607C6.41197 7.66607 6.60984 7.48619 6.60984 7.23436V4.82393L7.31139 5.52547C7.47328 5.70535 7.74311 5.70535 7.905 5.52547C8.08488 5.36357 8.08488 5.09375 7.905 4.91387L6.46594 3.4748C6.30404 3.31291 6.03422 3.31291 5.87232 3.4748L4.43326 4.91387Z" fill="#F1488D"/>
</svg>
