<svg width="18" height="16" viewBox="0 0 18 16" fill="none" xmlns="http://www.w3.org/2000/svg">
<path d="M9.5 0.1875C4.78516 0.1875 1 3.30859 1 7.09375C1 8.6875 1.63086 10.1484 2.72656 11.3105C2.26172 12.6055 1.23242 13.7344 1.19922 13.7344C0.966797 13.9668 0.933594 14.2988 1.0332 14.5977C1.16602 14.8965 1.46484 15.0625 1.79688 15.0625C3.82227 15.0625 5.41602 14.2324 6.41211 13.5352C7.3418 13.834 8.4043 14 9.5 14C14.1816 14 17.9668 10.9121 17.9668 7.09375C17.9668 3.30859 14.1816 0.1875 9.5 0.1875ZM9.5 12.4062C8.60352 12.4062 7.70703 12.2734 6.87695 12.0078L6.11328 11.7754L5.48242 12.2402C5.01758 12.5723 4.35352 12.9375 3.55664 13.2031C3.82227 12.8047 4.05469 12.3398 4.2207 11.875L4.58594 10.9453L3.88867 10.2148C3.29102 9.58398 2.59375 8.52148 2.59375 7.09375C2.59375 4.17188 5.68164 1.78125 9.5 1.78125C13.2852 1.78125 16.4062 4.17188 16.4062 7.09375C16.4062 10.0488 13.2852 12.4062 9.5 12.4062Z" fill="#F1488D"/>
</svg>
