<svg width="15" height="18" viewBox="0 0 15 18" fill="none" xmlns="http://www.w3.org/2000/svg">
<path d="M10.7246 1.85156C10.0273 2.48242 9.42969 3.14648 8.86523 3.84375C7.96875 2.58203 6.83984 1.32031 5.57812 0.125C2.29102 3.17969 0 7.09766 0 9.48828C0 13.7051 3.32031 17.125 7.4375 17.125C11.5215 17.125 14.875 13.7051 14.875 9.48828C14.875 7.72852 13.1484 4.07617 10.7246 1.85156ZM7.4375 15.5312C4.2168 15.5312 1.59375 12.8418 1.59375 9.48828C1.59375 7.99414 3.05469 5.07227 5.57812 2.38281C6.30859 3.14648 7.00586 3.97656 7.57031 4.77344L8.79883 6.43359L10.0938 4.83984C10.293 4.60742 10.4922 4.375 10.6914 4.14258C12.2188 6.03516 13.2812 8.45898 13.2812 9.48828C13.2812 12.8418 10.6582 15.5312 7.4375 15.5312ZM10.3926 8.22656L8.69922 10.1523C8.69922 10.1523 6.00977 6.73242 5.81055 6.5C4.41602 8.19336 3.71875 9.18945 3.71875 10.3184C3.71875 12.5762 5.41211 13.9375 7.50391 13.9375C8.33398 13.9375 9.13086 13.7051 9.76172 13.2402C11.1895 12.2441 11.5215 10.3184 10.7246 8.79102C10.625 8.5918 10.5254 8.42578 10.3926 8.22656Z" fill="#F1488D"/>
</svg>
