<svg width="22" height="16" viewBox="0 0 22 16" fill="none" xmlns="http://www.w3.org/2000/svg">
<path d="M20.6855 3.67383L11.2891 0.320312C11.0898 0.253906 10.8574 0.1875 10.625 0.1875C10.3594 0.1875 10.127 0.253906 9.89453 0.320312L0.53125 3.67383C0.199219 3.80664 0 4.10547 0 4.4375C0 4.80273 0.199219 5.10156 0.53125 5.23438L2.52344 5.93164C2.125 6.46289 1.82617 7.06055 1.69336 7.72461C1.32812 7.89062 1.0625 8.25586 1.0625 8.6875C1.0625 9.01953 1.19531 9.31836 1.42773 9.51758L0.630859 14.4648C0.564453 14.7969 0.830078 15.0625 1.12891 15.0625H3.08789C3.38672 15.0625 3.65234 14.7969 3.58594 14.4648L2.78906 9.51758C3.02148 9.31836 3.1875 9.01953 3.1875 8.6875C3.1875 8.35547 2.98828 8.05664 2.75586 7.89062C2.88867 7.29297 3.1875 6.76172 3.58594 6.33008L9.89453 8.58789C10.127 8.6543 10.3594 8.6875 10.625 8.6875C10.8574 8.6875 11.0898 8.6543 11.3223 8.58789L20.6855 5.23438C21.0176 5.10156 21.25 4.80273 21.25 4.4375C21.25 4.10547 21.0176 3.80664 20.6855 3.67383ZM10.791 7.09375C10.625 7.12695 10.4922 7.09375 10.459 7.09375L5.81055 5.43359L10.7578 3.90625C11.0566 3.80664 11.1895 3.50781 11.123 3.24219C11.0234 2.94336 10.7246 2.77734 10.459 2.87695L4.15039 4.83594L3.08789 4.4375L10.4258 1.81445C10.5586 1.78125 10.6914 1.81445 10.7578 1.81445L18.1289 4.4375L10.791 7.09375ZM15.0078 8.38867L15.4062 12.1074C15.4062 12.4727 13.7461 13.4688 10.625 13.4688C7.4707 13.4688 5.84375 12.4727 5.84375 12.1074L6.20898 8.38867L4.68164 7.85742L4.25 12.041C4.25 14.0664 7.4375 15.0625 10.625 15.0625C13.7793 15.0625 17 14.0664 16.9668 12.041L16.5352 7.85742L15.0078 8.38867Z" fill="#F1488D"/>
</svg>
