<svg width="17" height="16" viewBox="0 0 17 16" fill="none" xmlns="http://www.w3.org/2000/svg">
<path d="M8.10156 1.91406L8.4668 2.3125L8.86523 1.94727C9.96094 0.851562 11.5215 0.353516 13.0156 0.619141C15.3066 0.984375 17 2.97656 17 5.30078V5.4668C17 6.86133 16.4023 8.18945 15.4062 9.11914L9.39648 14.7305C9.16406 14.9629 8.83203 15.0625 8.5 15.0625C8.13477 15.0625 7.80273 14.9629 7.57031 14.7305L1.56055 9.11914C0.564453 8.18945 0 6.86133 0 5.4668V5.30078C0 2.97656 1.66016 0.984375 3.95117 0.619141C5.44531 0.353516 7.00586 0.851562 8.10156 1.91406C8.10156 1.94727 8.06836 1.91406 8.10156 1.91406ZM8.4668 4.57031L6.97266 3.04297C6.24219 2.3457 5.21289 2.01367 4.2168 2.17969C2.68945 2.44531 1.59375 3.74023 1.59375 5.30078V5.4668C1.59375 6.42969 1.95898 7.32617 2.65625 7.95703L8.5 13.4023L14.3105 7.95703C15.0078 7.32617 15.4062 6.42969 15.4062 5.4668V5.30078C15.4062 3.74023 14.2773 2.44531 12.75 2.17969C11.7539 2.01367 10.7246 2.3457 9.99414 3.04297L8.4668 4.57031Z" fill="#F1488D"/>
</svg>
