<svg width="19" height="18" viewBox="0 0 19 18" fill="none" xmlns="http://www.w3.org/2000/svg">
<path d="M17.9668 1.35352L15.8418 15.1328C15.8086 15.4648 15.6094 15.7637 15.3105 15.9297C15.1445 15.9961 14.9785 16.0625 14.7793 16.0625C14.6465 16.0625 14.5137 16.0293 14.3809 15.9629L10.3301 14.2695L8.63672 16.793C8.50391 17.0254 8.27148 17.125 8.03906 17.125C7.67383 17.125 7.375 16.8262 7.375 16.4609V13.2734C7.375 13.0078 7.44141 12.7754 7.57422 12.6094L14.8125 3.3125L5.05078 12.1113L1.63086 10.6836C1.26562 10.5176 1 10.1855 1 9.75391C0.966797 9.28906 1.16602 8.95703 1.53125 8.75781L16.4062 0.291016C16.7383 0.0917969 17.2031 0.0917969 17.5352 0.324219C17.8672 0.556641 18.0332 0.955078 17.9668 1.35352Z" fill="white"/>
</svg>
