<svg width="11" height="11" viewBox="0 0 11 11" fill="none" xmlns="http://www.w3.org/2000/svg">
<path d="M10.192 1.60682L9.04076 9.07195C9.02277 9.25184 8.91484 9.41373 8.75295 9.50367C8.66301 9.53965 8.57307 9.57563 8.46514 9.57563C8.39318 9.57563 8.32123 9.55764 8.24928 9.52166L6.05471 8.60426L5.1373 9.97137C5.06535 10.0973 4.93943 10.1513 4.81352 10.1513C4.61564 10.1513 4.45375 9.98936 4.45375 9.79148V8.06461C4.45375 7.9207 4.48973 7.79479 4.56168 7.70484L8.48313 2.66812L3.19457 7.43502L1.34178 6.66152C1.14391 6.57158 1 6.3917 1 6.15785C0.982012 5.90602 1.08994 5.72613 1.28781 5.6182L9.34656 1.03119C9.52645 0.923262 9.77828 0.923262 9.95816 1.04918C10.138 1.1751 10.228 1.39096 10.192 1.60682Z" fill="white"/>
</svg>
