<svg width="11" height="11" viewBox="0 0 11 11" fill="none" xmlns="http://www.w3.org/2000/svg">
<path d="M10.0332 5.5C10.0332 5.82812 9.77539 6.0625 9.4707 6.0625H5.7207V9.8125C5.7207 10.1406 5.46289 10.3984 5.1582 10.3984C4.83008 10.3984 4.5957 10.1406 4.5957 9.8125V6.0625H0.845703C0.517578 6.0625 0.283203 5.82812 0.283203 5.52344C0.283203 5.19531 0.517578 4.9375 0.845703 4.9375H4.5957V1.1875C4.5957 0.882812 4.83008 0.648438 5.1582 0.648438C5.46289 0.648438 5.7207 0.882812 5.7207 1.1875V4.9375H9.4707C9.77539 4.9375 10.0332 5.19531 10.0332 5.5Z" fill="#F1488D"/>
</svg>
