<svg width="21" height="18" viewBox="0 0 21 18" fill="none" xmlns="http://www.w3.org/2000/svg">
<path d="M11.6875 13.4062C11.6875 13.7051 11.4219 13.9375 11.1562 13.9375H10.0938C9.79492 13.9375 9.5625 13.7051 9.5625 13.4062C9.5625 13.1406 9.79492 12.875 10.0938 12.875H11.1562C11.4219 12.875 11.6875 13.1406 11.6875 13.4062ZM7.96875 12.875H6.375C6.07617 12.875 5.84375 13.1406 5.84375 13.4062C5.84375 13.7051 6.07617 13.9375 6.375 13.9375H7.96875C8.23438 13.9375 8.5 13.7051 8.5 13.4062C8.5 13.1406 8.23438 12.875 7.96875 12.875ZM5.71094 8.75781C5.71094 7.5293 6.70703 6.5 7.96875 6.5C9.19727 6.5 10.2266 7.5293 10.2266 8.75781C10.2266 10.0195 9.19727 11.0156 7.96875 11.0156C6.70703 11.0156 5.71094 10.0195 5.71094 8.75781ZM7.30469 8.75781C7.30469 9.15625 7.57031 9.42188 7.96875 9.42188C8.33398 9.42188 8.63281 9.15625 8.63281 8.75781C8.63281 8.39258 8.33398 8.09375 7.96875 8.09375C7.57031 8.09375 7.30469 8.39258 7.30469 8.75781ZM15.5391 8.75781C15.5391 10.0195 14.5098 11.0156 13.248 11.0156C12.0195 11.0156 10.9902 9.98633 10.9902 8.75781C10.9902 7.5293 12.0195 6.5332 13.248 6.5332C14.5098 6.5 15.5391 7.5293 15.5391 8.75781ZM13.9121 8.75781C13.9121 8.39258 13.6133 8.12695 13.248 8.12695C12.8828 8.12695 12.6172 8.39258 12.6172 8.75781C12.6172 9.15625 12.8828 9.42188 13.248 9.42188C13.6133 9.42188 13.9121 9.12305 13.9121 8.75781ZM14.875 12.875H13.2812C12.9824 12.875 12.75 13.1406 12.75 13.4062C12.75 13.7051 12.9824 13.9375 13.2812 13.9375H14.875C15.1406 13.9375 15.4062 13.7051 15.4062 13.4062C15.4062 13.1406 15.1406 12.875 14.875 12.875ZM18.0625 5.96875V14.4688C18.0625 15.9629 16.8672 17.125 15.4062 17.125H5.84375C4.34961 17.125 3.1875 15.9629 3.1875 14.4688V5.96875C3.1875 4.50781 4.34961 3.3125 5.84375 3.3125H9.82812V0.921875C9.82812 0.490234 10.1602 0.125 10.625 0.125C11.0566 0.125 11.4219 0.490234 11.4219 0.921875V3.3125H15.4062C16.8672 3.3125 18.0625 4.50781 18.0625 5.96875ZM16.4688 5.96875C16.4688 5.4043 15.9707 4.90625 15.4062 4.90625H5.84375C5.24609 4.90625 4.78125 5.4043 4.78125 5.96875V14.4688C4.78125 15.0664 5.24609 15.5312 5.84375 15.5312H15.4062C15.9707 15.5312 16.4688 15.0664 16.4688 14.4688V5.96875ZM19.6562 6.5H19.125V12.875H19.6562C20.2207 12.875 20.7188 12.4102 20.7188 11.8125V7.5625C20.7188 6.99805 20.2207 6.5 19.6562 6.5ZM0.53125 7.5625V11.8125C0.53125 12.4102 0.996094 12.875 1.56055 12.875H2.125V6.5H1.59375C0.996094 6.5 0.53125 6.99805 0.53125 7.5625Z" fill="#F1488D"/>
</svg>
