<svg width="9" height="10" viewBox="0 0 9 10" fill="none" xmlns="http://www.w3.org/2000/svg">
<path d="M2.55342 0.842187C2.64336 0.644316 2.84123 0.518398 3.05709 0.518398H5.23367C5.44953 0.518398 5.6474 0.644316 5.73734 0.842187L5.88125 1.09402H7.60813C7.91393 1.09402 8.18375 1.36385 8.18375 1.66965C8.18375 1.99344 7.91393 2.24527 7.60813 2.24527H0.700625C0.376836 2.24527 0.125 1.99344 0.125 1.66965C0.125 1.36385 0.376836 1.09402 0.700625 1.09402H2.4275L2.55342 0.842187ZM7.21238 8.91893C7.19439 9.38662 6.81664 9.7284 6.34895 9.7284H1.94182C1.47412 9.7284 1.09637 9.38662 1.07838 8.91893L0.682637 2.8209H7.60813L7.21238 8.91893Z" fill="#FF7471"/>
</svg>
