<svg width="22" height="18" viewBox="0 0 22 18" fill="none" xmlns="http://www.w3.org/2000/svg">
<path d="M7.4375 8.625C9.76172 8.625 11.6875 6.73242 11.6875 4.375C11.6875 2.05078 9.76172 0.125 7.4375 0.125C5.08008 0.125 3.1875 2.05078 3.1875 4.375C3.1875 6.73242 5.08008 8.625 7.4375 8.625ZM7.4375 1.71875C8.89844 1.71875 10.0938 2.91406 10.0938 4.375C10.0938 5.86914 8.89844 7.03125 7.4375 7.03125C5.94336 7.03125 4.78125 5.86914 4.78125 4.375C4.78125 2.91406 5.94336 1.71875 7.4375 1.71875ZM9.09766 10.2188H5.74414C2.55664 10.2188 0 12.8086 0 15.9961C0 16.627 0.498047 17.125 1.12891 17.125H13.7129C14.3438 17.125 14.875 16.627 14.875 15.9961C14.875 12.8086 12.2852 10.2188 9.09766 10.2188ZM1.59375 15.5312C1.82617 13.4727 3.58594 11.8125 5.74414 11.8125H9.09766C11.2559 11.8125 12.9824 13.4727 13.248 15.5312H1.59375ZM20.4531 6.76562H18.8594V5.17188C18.8594 4.74023 18.4941 4.375 18.0625 4.375C17.5977 4.375 17.2656 4.74023 17.2656 5.17188V6.76562H15.6719C15.207 6.76562 14.875 7.13086 14.875 7.5625C14.875 8.02734 15.207 8.35938 15.6719 8.35938H17.2656V9.95312C17.2656 10.418 17.5977 10.75 18.0625 10.75C18.4941 10.75 18.8594 10.418 18.8594 9.95312V8.35938H20.4531C20.8848 8.35938 21.25 8.02734 21.25 7.5625C21.25 7.13086 20.8848 6.76562 20.4531 6.76562Z" fill="#F1488D"/>
</svg>
