<svg width="15" height="18" viewBox="0 0 15 18" fill="none" xmlns="http://www.w3.org/2000/svg">
<path d="M9.03125 10.2188H5.84375C2.58984 10.2188 0 12.8418 0 16.0625C0 16.6602 0.464844 17.125 1.0625 17.125H13.8125C14.377 17.125 14.875 16.6602 14.875 16.0625C14.875 12.8418 12.252 10.2188 9.03125 10.2188ZM1.59375 15.5312C1.85938 13.4395 3.65234 11.8125 5.84375 11.8125H9.03125C11.1895 11.8125 12.9824 13.4395 13.248 15.5312H1.59375ZM7.4375 8.625C9.76172 8.625 11.6875 6.73242 11.6875 4.375C11.6875 2.05078 9.76172 0.125 7.4375 0.125C5.08008 0.125 3.1875 2.05078 3.1875 4.375C3.1875 6.73242 5.08008 8.625 7.4375 8.625ZM7.4375 1.71875C8.89844 1.71875 10.0938 2.91406 10.0938 4.375C10.0938 5.86914 8.89844 7.03125 7.4375 7.03125C5.94336 7.03125 4.78125 5.86914 4.78125 4.375C4.78125 2.91406 5.94336 1.71875 7.4375 1.71875Z" fill="#F1488D"/>
</svg>
