<svg width="43" height="43" viewBox="0 0 43 43" fill="none" xmlns="http://www.w3.org/2000/svg">
<g filter="url(#filter0_i_94_1465)">
<circle cx="21.5" cy="21.5" r="21.5" fill="#F8F8F8"/>
</g>
<path d="M27.5911 28.1201V26.7035C27.5911 25.952 27.2926 25.2313 26.7613 24.7C26.2299 24.1686 25.5093 23.8701 24.7578 23.8701H19.0911C18.3397 23.8701 17.619 24.1686 17.0877 24.7C16.5563 25.2313 16.2578 25.952 16.2578 26.7035V28.1201M24.7565 18.2039C24.7565 19.7687 23.488 21.0373 21.9232 21.0373C20.3584 21.0373 19.0898 19.7687 19.0898 18.2039C19.0898 16.6391 20.3584 15.3706 21.9232 15.3706C23.488 15.3706 24.7565 16.6391 24.7565 18.2039Z" stroke="#D5D5D5" stroke-width="1.27114" stroke-linecap="round" stroke-linejoin="round"/>
<defs>
<filter id="filter0_i_94_1465" x="0" y="0" width="43" height="45" filterUnits="userSpaceOnUse" color-interpolation-filters="sRGB">
<feFlood flood-opacity="0" result="BackgroundImageFix"/>
<feBlend mode="normal" in="SourceGraphic" in2="BackgroundImageFix" result="shape"/>
<feColorMatrix in="SourceAlpha" type="matrix" values="0 0 0 0 0 0 0 0 0 0 0 0 0 0 0 0 0 0 127 0" result="hardAlpha"/>
<feOffset dy="2"/>
<feGaussianBlur stdDeviation="2.5"/>
<feComposite in2="hardAlpha" operator="arithmetic" k2="-1" k3="1"/>
<feColorMatrix type="matrix" values="0 0 0 0 1 0 0 0 0 1 0 0 0 0 1 0 0 0 0.06 0"/>
<feBlend mode="normal" in2="shape" result="effect1_innerShadow_94_1465"/>
</filter>
</defs>
</svg>
