<svg width="22" height="18" viewBox="0 0 22 18" fill="none" xmlns="http://www.w3.org/2000/svg">
<path d="M10.5918 10.75C12.5176 10.75 14.0449 9.22266 14.0449 7.29688C14.0449 5.4043 12.4844 3.84375 10.5918 3.84375C8.69922 3.84375 7.17188 5.4043 7.17188 7.29688C7.13867 9.22266 8.69922 10.75 10.5918 10.75ZM10.5918 5.4375C11.6211 5.4375 12.4512 6.30078 12.4512 7.29688C12.4512 8.32617 11.6211 9.15625 10.5918 9.15625C9.5957 9.15625 8.73242 8.32617 8.73242 7.29688C8.73242 6.30078 9.5957 5.4375 10.5918 5.4375ZM17 5.4375C18.4609 5.4375 19.6562 4.27539 19.6562 2.78125C19.6562 1.32031 18.4609 0.125 17 0.125C15.5059 0.125 14.3438 1.32031 14.3438 2.78125C14.3438 4.27539 15.5059 5.4375 17 5.4375ZM12.252 11.8125H8.96484C6.3418 11.8125 4.25 13.8047 4.25 16.2617C4.25 16.7598 4.64844 17.125 5.17969 17.125H16.0371C16.5684 17.125 17 16.7598 17 16.2617C17 13.8047 14.875 11.8125 12.252 11.8125ZM5.91016 15.5312C6.24219 14.3359 7.4707 13.4062 8.93164 13.4062H12.252C13.7129 13.4062 14.9414 14.3359 15.3066 15.5312H5.91016ZM18.2949 6.5H16.2695C15.8379 6.5 15.4395 6.63281 15.0742 6.79883C15.0742 6.96484 15.1074 7.13086 15.1074 7.29688C15.1074 8.42578 14.709 9.45508 14.0117 10.2188H20.6523C20.9844 10.2188 21.25 9.95312 21.25 9.62109C21.25 7.89453 19.9219 6.5 18.2949 6.5ZM6.07617 7.29688C6.07617 7.13086 6.10938 6.96484 6.14258 6.79883C5.77734 6.59961 5.37891 6.5 4.94727 6.5H2.92188C1.29492 6.5 0 7.89453 0 9.62109C0 9.95312 0.232422 10.2188 0.564453 10.2188H7.20508C6.50781 9.45508 6.07617 8.42578 6.07617 7.29688ZM4.25 5.4375C5.71094 5.4375 6.90625 4.27539 6.90625 2.78125C6.90625 1.32031 5.71094 0.125 4.25 0.125C2.75586 0.125 1.59375 1.32031 1.59375 2.78125C1.59375 4.27539 2.75586 5.4375 4.25 5.4375Z" fill="#F1488D"/>
</svg>
