<svg width="20" height="13" viewBox="0 0 20 13" fill="none" xmlns="http://www.w3.org/2000/svg">
<path d="M18.4941 1.54492C18.1289 1.2793 17.6309 1.24609 17.2324 1.44531L13.8125 3.00586V2.375C13.8125 1.21289 12.8496 0.25 11.6875 0.25H2.125C0.929688 0.25 0 1.21289 0 2.375V10.875C0 12.0703 0.929688 13 2.125 13H11.6875C12.8496 13 13.8125 12.0703 13.8125 10.875V10.2441L17.2324 11.8379C17.3984 11.9043 17.5977 11.9707 17.7637 11.9707C18.0293 11.9707 18.2949 11.8711 18.4941 11.7383C18.8926 11.5059 19.125 11.0742 19.125 10.6094V2.64062C19.125 2.20898 18.8926 1.77734 18.4941 1.54492ZM12.2188 10.875C12.2188 11.1738 11.9531 11.4062 11.6875 11.4062H2.125C1.82617 11.4062 1.59375 11.1738 1.59375 10.875V2.375C1.59375 2.10938 1.82617 1.84375 2.125 1.84375H11.6875C11.9531 1.84375 12.2188 2.10938 12.2188 2.375V10.875ZM17.5312 10.2109L13.8125 8.51758V4.76562L17.5312 3.07227V10.2109Z" fill="#F1488D"/>
</svg>
